<svg width="78" height="36" viewBox="0 0 78 36" fill="none" xmlns="http://www.w3.org/2000/svg">
<path d="M53.272 23H48.376V11.816H52.728C53.4853 11.816 54.136 11.9067 54.68 12.088C55.2347 12.2693 55.6507 12.5147 55.928 12.824C56.4293 13.4 56.68 14.0507 56.68 14.776C56.68 15.6507 56.3973 16.3013 55.832 16.728C55.64 16.8773 55.5067 16.9733 55.432 17.016C55.3573 17.048 55.224 17.1067 55.032 17.192C55.7253 17.3413 56.2747 17.656 56.68 18.136C57.096 18.6053 57.304 19.192 57.304 19.896C57.304 20.6747 57.0373 21.3627 56.504 21.96C55.8853 22.6533 54.808 23 53.272 23ZM50.872 16.344H52.056C52.7493 16.344 53.2613 16.2693 53.592 16.12C53.9333 15.9707 54.104 15.6507 54.104 15.16C54.104 14.6587 53.9493 14.328 53.64 14.168C53.3307 14.008 52.808 13.928 52.072 13.928H50.872V16.344ZM50.872 20.888H52.584C53.2987 20.888 53.832 20.8027 54.184 20.632C54.5467 20.4507 54.728 20.104 54.728 19.592C54.728 19.0693 54.536 18.728 54.152 18.568C53.7787 18.3973 53.176 18.312 52.344 18.312H50.872V20.888ZM64.6411 19.032V14.392H67.0571V23H64.6411V21.864C64.0438 22.7067 63.2705 23.128 62.3211 23.128C61.3825 23.128 60.5931 22.8347 59.9531 22.248C59.3131 21.6507 58.9931 20.7707 58.9931 19.608V14.392H61.4091V19.08C61.4091 20.4027 61.8945 21.064 62.8651 21.064C63.3451 21.064 63.7611 20.8933 64.1131 20.552C64.4651 20.2 64.6411 19.6933 64.6411 19.032ZM70.8115 26.392C69.9688 26.392 69.1742 26.0507 68.4275 25.368L69.5155 23.592C69.9208 23.9867 70.3368 24.184 70.7635 24.184C70.9875 24.184 71.1795 24.072 71.3395 23.848C71.4995 23.6347 71.5795 23.4053 71.5795 23.16C71.5795 22.9147 70.4702 19.992 68.2515 14.392H70.8115L72.9075 19.752L75.0035 14.392H77.5635L73.5635 24.536C73.3288 25.1227 72.9608 25.576 72.4595 25.896C71.9688 26.2267 71.4195 26.392 70.8115 26.392Z" fill="#B36116"/>
<circle cx="18" cy="18" r="18" fill="#B26116" fill-opacity="0.1"/>
<path d="M15.45 22.8438C16.3466 22.8438 17.0733 23.5503 17.0733 24.4219C17.0733 25.2935 16.3466 26 15.45 26C14.5535 26 13.8268 25.2935 13.8268 24.4219C13.8268 23.5503 14.5535 22.8438 15.45 22.8438ZM22.2604 22.8438C23.1569 22.8438 23.8837 23.5503 23.8837 24.4219C23.8837 25.2935 23.1569 26 22.2604 26C21.3639 26 20.6371 25.2935 20.6371 24.4219C20.6371 23.5503 21.3639 22.8438 22.2604 22.8438ZM15.45 24.1498C15.2955 24.1498 15.1702 24.2716 15.1702 24.4219C15.1702 24.5722 15.2955 24.694 15.45 24.694C15.6046 24.694 15.7299 24.5722 15.7299 24.4219C15.7299 24.2716 15.6046 24.1498 15.45 24.1498ZM22.2604 24.1498C22.1058 24.1498 21.9805 24.2716 21.9805 24.4219C21.9805 24.5722 22.1058 24.694 22.2604 24.694C22.415 24.694 22.5403 24.5722 22.5403 24.4219C22.5403 24.2716 22.415 24.1498 22.2604 24.1498ZM11.6472 10C11.9699 10 12.2464 10.2229 12.3069 10.5302L12.3087 10.5395L12.6951 12.6677H26.328C26.7614 12.6677 27.0801 13.0604 26.9822 13.4686L26.9791 13.481L25.4864 19.213C25.4117 19.4999 25.1481 19.7016 24.8445 19.7057L24.8353 19.7057H13.9731L14.2596 21.2838H23.865C24.2323 21.2838 24.5307 21.5704 24.5367 21.926V21.9368C24.5367 22.2939 24.242 22.584 23.8761 22.5898H13.6961C13.3735 22.5898 13.0969 22.3669 13.0364 22.0597L13.0347 22.0503L11.0837 11.306H9.67171C9.30445 11.306 9.00603 11.0195 9 10.6638V10.653C9 10.296 9.29475 10.0059 9.6606 10H11.6472Z" fill="#B36116"/>
</svg>
