<svg width="93" height="36" viewBox="0 0 93 36" fill="none" xmlns="http://www.w3.org/2000/svg">
<path d="M53.512 20.792C54.7387 20.792 55.7413 20.3067 56.52 19.336L58.12 20.984C56.8507 22.4133 55.352 23.128 53.624 23.128C51.9067 23.128 50.488 22.584 49.368 21.496C48.2587 20.408 47.704 19.0373 47.704 17.384C47.704 15.72 48.2693 14.3333 49.4 13.224C50.5413 12.1147 51.9333 11.56 53.576 11.56C55.4107 11.56 56.9467 12.2587 58.184 13.656L56.632 15.416C55.8427 14.4347 54.8613 13.944 53.688 13.944C52.7493 13.944 51.944 14.2533 51.272 14.872C50.6107 15.48 50.28 16.3067 50.28 17.352C50.28 18.3867 50.5947 19.2187 51.224 19.848C51.8533 20.4773 52.616 20.792 53.512 20.792ZM62.2548 23H59.8548V11.128H62.2548V23ZM71.8386 23H69.5826V21.96C68.964 22.7387 68.196 23.128 67.2786 23.128C66.372 23.128 65.6093 22.8667 64.9906 22.344C64.372 21.8107 64.0626 21.1067 64.0626 20.232C64.0626 19.3467 64.3826 18.6853 65.0226 18.248C65.6626 17.8107 66.5373 17.592 67.6466 17.592H69.4386V17.544C69.4386 16.6267 68.9533 16.168 67.9826 16.168C67.5666 16.168 67.124 16.2533 66.6546 16.424C66.196 16.584 65.8066 16.7867 65.4866 17.032L64.4146 15.48C65.5453 14.6587 66.836 14.248 68.2866 14.248C69.332 14.248 70.1853 14.5093 70.8466 15.032C71.508 15.5547 71.8386 16.3813 71.8386 17.512V23ZM69.4226 19.72V19.304H67.9186C66.9586 19.304 66.4786 19.6027 66.4786 20.2C66.4786 20.5093 66.5906 20.7493 66.8146 20.92C67.0493 21.08 67.38 21.16 67.8066 21.16C68.2333 21.16 68.6066 21.032 68.9266 20.776C69.2573 20.5093 69.4226 20.1573 69.4226 19.72ZM76.4266 23H74.0266V14.392H76.4266V23ZM74.2186 13.304C73.952 13.0267 73.8186 12.6907 73.8186 12.296C73.8186 11.9013 73.952 11.5707 74.2186 11.304C74.496 11.0267 74.832 10.888 75.2266 10.888C75.6213 10.888 75.952 11.0267 76.2186 11.304C76.496 11.5707 76.6346 11.9013 76.6346 12.296C76.6346 12.6907 76.496 13.0267 76.2186 13.304C75.952 13.5707 75.6213 13.704 75.2266 13.704C74.832 13.704 74.496 13.5707 74.2186 13.304ZM86.6025 18.36V23H84.1865V18.296C84.1865 17.6133 84.0798 17.112 83.8665 16.792C83.6638 16.472 83.3278 16.312 82.8585 16.312C82.3998 16.312 81.9892 16.488 81.6265 16.84C81.2745 17.1813 81.0985 17.688 81.0985 18.36V23H78.6985V14.392H81.0985V15.368C81.7598 14.6213 82.5172 14.248 83.3705 14.248C83.9145 14.248 84.4052 14.408 84.8425 14.728C85.2905 15.048 85.6265 15.4373 85.8505 15.896C86.1812 15.3733 86.6238 14.968 87.1785 14.68C87.7438 14.392 88.3092 14.248 88.8745 14.248C89.8878 14.248 90.7038 14.552 91.3225 15.16C91.9412 15.7573 92.2505 16.6267 92.2505 17.768V23H89.8345V18.296C89.8345 16.9733 89.3492 16.312 88.3785 16.312C87.8985 16.312 87.4825 16.488 87.1305 16.84C86.7785 17.1813 86.6025 17.688 86.6025 18.36Z" fill="#2F4DB8"/>
<circle cx="18" cy="18" r="18" fill="#2F4DB8" fill-opacity="0.1"/>
<path d="M9.60448 10.9729C9.60448 10.4356 10.0401 10 10.5774 10H27.1712C27.7085 10 28.1441 10.4356 28.1441 10.9729V12.8883C28.1441 13.4256 27.7086 13.8612 27.1712 13.8612H10.5774C10.0401 13.8612 9.60448 13.4256 9.60448 12.8883V10.9729ZM7 16.092C7.13265 15.4571 7.95705 15.2168 7.95705 15.2168L23.6722 15.2596C23.6867 15.2583 23.7 15.258 23.7106 15.2598L23.6722 15.2596C23.5453 15.2714 23.2902 15.3885 23.2902 15.3885C22.904 15.4743 22.578 15.8947 22.578 15.8947C22.2005 16.3066 19.9352 19.2496 19.9352 19.2496H7.99996C7.15908 19.0866 7 18.3744 7 18.3744V16.092ZM21.5398 24.6252H8.0257C8.0257 24.6252 7.24849 24.5866 7 23.7586V21.4805C7 21.4805 7.33069 20.6182 8.06002 20.6439H18.8627C18.8627 20.6439 18.4508 21.0386 18.4165 21.5148C18.4165 21.5148 18.3779 21.8537 18.4165 21.9567C18.4165 21.9567 18.4637 22.6303 18.8627 22.9306C18.8627 22.9306 19.1287 23.1923 19.4033 23.2137H21.5398V24.6252ZM27.995 21.8981L26.2618 21.9381C26.2618 21.9381 25.6784 22.0356 25.5525 22.6248L25.5411 24.8557C25.5411 24.8557 25.5182 25.6222 24.6945 25.8968H23.4818C23.4818 25.8968 22.8926 25.8396 22.8468 25.0044L22.8583 22.6703C22.8583 22.6703 22.8697 22.0181 22.2863 21.9495L20.7303 21.9266C20.7303 21.9266 20.0954 21.9266 20.2899 21.4118L20.5873 20.9314L23.2759 17.1217C23.2759 17.1217 23.7278 16.4753 24.0424 16.4467C24.0424 16.4467 24.5686 16.3037 24.9748 16.4467C24.9748 16.4467 25.2036 16.5268 25.3809 16.8871L28.2128 21.4004C28.2128 21.4004 28.5327 21.8809 27.995 21.8981Z" fill="#2F4DB8"/>
</svg>
