<svg width="91" height="36" viewBox="0 0 91 36" fill="none" xmlns="http://www.w3.org/2000/svg">
<path d="M58.392 15.96L55.368 22.072H53.88L50.872 15.96V23H48.376V11.816H51.752L54.632 17.96L57.528 11.816H60.888V23H58.392V15.96ZM63.6416 11.816H66.1376V23H63.6416V11.816ZM76.7156 11.816H79.2116V23H76.7156L71.3876 15.992V23H68.8916V11.816H71.2276L76.7156 19.016V11.816ZM86.7058 13.976V23H84.2098V13.976H81.0418V11.816H89.8738V13.976H86.7058Z" fill="#159374"/>
<circle cx="18" cy="18" r="18" fill="#159374" fill-opacity="0.1"/>
<path d="M14.1535 11.8305V8.921L11.635 7.472L9.1165 8.921V11.8305L11.635 13.2795L14.1535 11.8305ZM26.4815 6L23.9745 7.449V10.3585L24.4115 10.6115L20.007 13.958L17.5 12.509L13.1645 15.016V20.0185L14.4755 20.7775L11.405 23.1005L9.1165 21.7895L6 23.595V27.1945L9.1165 29L12.2445 27.1945V23.9055L15.5565 21.3985L17.5 22.5255L19.34 21.4675L21.0075 22.859L20.7315 23.02V25.918L23.2385 27.3785L25.757 25.918V23.02L23.2385 21.571L22.0655 22.2495L20.398 20.8465L21.8355 20.0185V15.016L21.088 14.579L25.4925 11.2325L26.4815 11.8075L29 10.3585V7.449L26.4815 6Z" fill="#159374"/>
</svg>
