<svg width="24" height="17" viewBox="0 0 24 17" fill="none" xmlns="http://www.w3.org/2000/svg">
<path d="M23.4991 2.61297C23.2232 1.58483 22.4089 0.775101 21.3777 0.500753C19.5054 1.01607e-07 12 0 12 0C12 0 4.49464 -1.01607e-07 2.62232 0.498089C1.58839 0.772438 0.776786 1.58217 0.500893 2.61031C-1.02179e-07 4.47481 0 8.36364 0 8.36364C0 8.36364 -1.02179e-07 12.2525 0.500893 14.1143C0.776786 15.1424 1.59107 15.9522 2.62232 16.2265C4.49464 16.7273 12 16.7273 12 16.7273C12 16.7273 19.5054 16.7273 21.3777 16.2265C22.4116 15.9522 23.2232 15.1424 23.4991 14.1143C24 12.2525 24 8.36364 24 8.36364C24 8.36364 24 4.47481 23.4991 2.61297ZM9.61607 11.9328V4.79444L15.8304 8.337L9.61607 11.9328Z" fill="white"/>
</svg>
