<svg width="21" height="24" viewBox="0 0 21 24" fill="none" xmlns="http://www.w3.org/2000/svg">
<path d="M18.3749 0H7.21867C5.76834 0 4.59379 1.34251 4.59379 3.00003H17.0536C17.7833 3.00003 18.3749 3.66737 18.3749 4.49331V19.5001C19.8239 19.5001 21 18.156 21 16.5001V3.00003C21 1.34251 19.8239 0 18.3749 0ZM14.4375 9.00001H2.62503V7.49966H14.4375V9.00001ZM14.4375 13.5H2.62503V12H14.4375V13.5ZM1.3105 4.49999C0.586778 4.49999 0 5.17131 0 5.99782V22.5024C0 23.3295 0.587277 24 1.3105 24H15.752C16.4757 24 17.0625 23.3287 17.0625 22.5024V5.99782C17.0625 5.17058 16.4752 4.49999 15.752 4.49999H1.3105Z" fill="white"/>
</svg>
