<svg width="24" height="20" viewBox="0 0 24 20" fill="none" xmlns="http://www.w3.org/2000/svg">
<path d="M24 2.33254C23.1174 2.71598 22.157 2.99193 21.1676 3.09941C22.1887 2.4865 22.9645 1.5192 23.3308 0.368908C22.3877 0.935342 21.3205 1.35073 20.2101 1.56568C19.3102 0.598386 18.0324 0 16.6163 0C13.8906 0 11.6986 2.22507 11.6986 4.95557C11.6986 5.339 11.7447 5.72243 11.8197 6.09134C7.73849 5.87639 4.09855 3.91275 1.67864 0.906294C1.25177 1.64411 1.00949 2.4865 1.00949 3.40732C1.00949 5.12695 1.87766 6.64325 3.20154 7.53502C2.39394 7.50307 1.6325 7.27359 0.977767 6.90468V6.96568C0.977767 9.37375 2.66795 11.3693 4.92056 11.8283C4.50811 11.9358 4.06682 11.9968 3.62553 11.9968C3.30537 11.9968 3.00252 11.9648 2.69679 11.9212C3.31979 13.8849 5.134 15.3111 7.29432 15.3576C5.60413 16.6909 3.48708 17.4752 1.18832 17.4752C0.775868 17.4752 0.395145 17.4607 0 17.4142C2.18051 18.823 4.7677 19.6364 7.5539 19.6364C16.599 19.6364 21.5484 12.0897 21.5484 5.53943C21.5484 5.32448 21.5484 5.10952 21.534 4.89457C22.4915 4.1887 23.3308 3.31436 24 2.33254Z" fill="white"/>
</svg>
