<svg width="20" height="20" viewBox="0 0 20 20" fill="none" xmlns="http://www.w3.org/2000/svg">
<path d="M19.0909 9.09091C18.5909 9.09091 18.1818 9.5 18.1818 10C18.1818 14.5 14.5 18.1818 10 18.1818C5.5 18.1818 1.81818 14.5 1.81818 10C1.81818 5.5 5.5 1.81818 10 1.81818C10.5 1.81818 10.9091 1.40909 10.9091 0.909091C10.9091 0.409091 10.5 0 10 0C4.5 0 0 4.5 0 10C0 15.5 4.5 20 10 20C15.5 20 20 15.5 20 10C20 9.5 19.5909 9.09091 19.0909 9.09091Z" fill="white"/>
<path d="M13.9022 2.8217L15.6725 3.04888L9.27235 9.45521C8.90922 9.81869 8.90922 10.3639 9.27235 10.7274C9.45391 10.9091 9.68087 11 9.90782 11C10.1348 11 10.3617 10.9091 10.5433 10.7274L16.9434 4.32106L17.1704 6.09302C17.2158 6.54737 17.6243 6.91085 18.0782 6.91085H18.2144C18.7137 6.86542 19.0768 6.41107 18.986 5.91128L18.6229 2.95801C18.5321 2.14018 17.8513 1.45865 17.0342 1.36778L14.0838 1.00431C13.5845 0.95887 13.1306 1.27691 13.0852 1.7767C13.0398 2.27648 13.4029 2.73083 13.9022 2.8217Z" fill="white"/>
</svg>
