<svg width="93" height="36" viewBox="0 0 93 36" fill="none" xmlns="http://www.w3.org/2000/svg">
<path d="M51.976 13.752C51.56 13.752 51.2293 13.8533 50.984 14.056C50.7493 14.248 50.632 14.5093 50.632 14.84C50.632 15.16 50.776 15.416 51.064 15.608C51.3627 15.8 52.04 16.0293 53.096 16.296C54.1627 16.552 54.9893 16.9413 55.576 17.464C56.1627 17.9867 56.456 18.7493 56.456 19.752C56.456 20.7547 56.0773 21.5707 55.32 22.2C54.5733 22.8187 53.5867 23.128 52.36 23.128C50.5893 23.128 48.9947 22.472 47.576 21.16L49.064 19.336C50.2693 20.392 51.384 20.92 52.408 20.92C52.8667 20.92 53.224 20.824 53.48 20.632C53.7467 20.4293 53.88 20.1627 53.88 19.832C53.88 19.4907 53.7413 19.224 53.464 19.032C53.1867 18.8293 52.6373 18.6267 51.816 18.424C50.5147 18.1147 49.56 17.7147 48.952 17.224C48.3547 16.7227 48.056 15.944 48.056 14.888C48.056 13.8213 48.4347 13 49.192 12.424C49.96 11.848 50.9147 11.56 52.056 11.56C52.8027 11.56 53.5493 11.688 54.296 11.944C55.0427 12.2 55.6933 12.5627 56.248 13.032L54.984 14.856C54.0133 14.12 53.0107 13.752 51.976 13.752ZM60.9844 16.12V19.976C60.9844 20.3067 61.0697 20.568 61.2404 20.76C61.411 20.9413 61.6137 21.032 61.8484 21.032C62.2964 21.032 62.675 20.8293 62.9844 20.424L63.8804 22.104C63.1337 22.7867 62.3444 23.128 61.5124 23.128C60.691 23.128 59.9924 22.856 59.4164 22.312C58.851 21.768 58.5684 21.0267 58.5684 20.088V16.12H57.5604V14.392H58.5684V11.816H60.9844V14.392H63.0644V16.12H60.9844ZM72.4792 23H70.2233V21.96C69.6046 22.7387 68.8366 23.128 67.9193 23.128C67.0126 23.128 66.2499 22.8667 65.6313 22.344C65.0126 21.8107 64.7033 21.1067 64.7033 20.232C64.7033 19.3467 65.0233 18.6853 65.6633 18.248C66.3033 17.8107 67.1779 17.592 68.2873 17.592H70.0793V17.544C70.0793 16.6267 69.5939 16.168 68.6233 16.168C68.2073 16.168 67.7646 16.2533 67.2953 16.424C66.8366 16.584 66.4473 16.7867 66.1273 17.032L65.0553 15.48C66.1859 14.6587 67.4766 14.248 68.9273 14.248C69.9726 14.248 70.8259 14.5093 71.4873 15.032C72.1486 15.5547 72.4792 16.3813 72.4792 17.512V23ZM70.0633 19.72V19.304H68.5593C67.5993 19.304 67.1193 19.6027 67.1193 20.2C67.1193 20.5093 67.2313 20.7493 67.4553 20.92C67.6899 21.08 68.0206 21.16 68.4473 21.16C68.8739 21.16 69.2473 21.032 69.5673 20.776C69.8979 20.5093 70.0633 20.1573 70.0633 19.72ZM77.0673 23H74.6673V11.128H77.0673V17.224L79.7393 14.376H82.7633L79.4833 17.864L82.8913 23H80.0433L77.8513 19.704L77.0673 20.52V23ZM91.6389 21.752C90.6682 22.6693 89.5269 23.128 88.2149 23.128C86.9135 23.128 85.8362 22.728 84.9829 21.928C84.1295 21.1173 83.7029 20.0347 83.7029 18.68C83.7029 17.3253 84.1349 16.248 84.9989 15.448C85.8735 14.648 86.9029 14.248 88.0869 14.248C89.2709 14.248 90.2735 14.6053 91.0949 15.32C91.9269 16.0347 92.3429 17.016 92.3429 18.264V19.544H86.0709C86.1455 20.0133 86.3909 20.3973 86.8069 20.696C87.2229 20.9947 87.6922 21.144 88.2149 21.144C89.0575 21.144 89.7509 20.8613 90.2949 20.296L91.6389 21.752ZM89.9109 17.832C89.8575 17.32 89.6655 16.9253 89.3349 16.648C89.0042 16.3707 88.5989 16.232 88.1189 16.232C87.6495 16.232 87.2175 16.376 86.8229 16.664C86.4282 16.952 86.1989 17.3413 86.1349 17.832H89.9109Z" fill="#936815"/>
<circle cx="18" cy="18" r="18" fill="#936815" fill-opacity="0.1"/>
<path d="M17.0973 9.25819L13.4752 10.7046C13.4269 10.7269 13.3793 10.7509 13.3326 10.7765C13.183 10.8552 13.0611 10.9436 12.9645 11.0477C12.7517 11.2719 12.6758 11.5507 12.6861 11.9467V16.3414L8.9087 17.7979C8.68785 17.8671 8.4877 17.9868 8.33243 18.1448C8.11732 18.3533 7.98965 18.6289 8.00115 18.9784V21.7045L8 23.5334C8 24.2331 8.13113 24.3857 8.735 24.7193L12.5676 26.7977C13.129 27.0136 13.3717 27.1165 13.9836 26.7977L14.1745 26.6965L17.6379 24.8583V24.8577L17.6391 24.8571L17.6402 24.8565L17.6414 24.8553L17.6425 24.8547L17.6437 24.8535L17.646 24.8523L17.6471 24.8511L17.6494 24.85L17.6517 24.8482L17.654 24.847L17.6563 24.8452L17.6598 24.8434L17.6621 24.8417L17.6655 24.8399L17.669 24.8375L17.6724 24.8358L17.6759 24.8334L17.6793 24.8316L17.6839 24.8293L17.6874 24.8269L17.692 24.8245L17.6966 24.8222L17.7012 24.8198L17.7058 24.8175L17.7104 24.8145L17.7162 24.8121L17.7208 24.8098L17.7265 24.8068L17.7323 24.8045L17.7381 24.8015L17.7438 24.7991L17.7507 24.7968L17.7565 24.7938L17.7633 24.7908L17.7691 24.7885L17.776 24.7861L17.7829 24.7831L17.7898 24.7808L17.7979 24.7784L17.8048 24.7761L17.8117 24.7737L17.8197 24.7713L17.8278 24.7684L17.8358 24.7666L17.8438 24.7642L17.8519 24.7619L17.8599 24.7595L17.8691 24.7577L17.8772 24.7554L17.8864 24.7536L17.8956 24.7518L17.9048 24.7501L17.914 24.7483L17.9232 24.7471L17.9324 24.7453L17.9416 24.7441L17.9519 24.7429L17.9611 24.7417H17.9623L17.9715 24.7406L17.9819 24.74L17.9922 24.7388L18.0026 24.74L18.0129 24.7406L18.0221 24.7417L18.0325 24.7429L18.0417 24.7441L18.052 24.7453L18.0612 24.7471L18.0704 24.7483L18.0796 24.7501L18.0888 24.7518L18.098 24.7536L18.1061 24.7554H18.1072L18.1153 24.7577L18.1233 24.7595L18.1325 24.7619L18.1406 24.7642L18.1486 24.7666L18.1555 24.7684L18.1636 24.7713L18.1716 24.7737L18.1797 24.7761L18.1865 24.7784L18.1935 24.7808L18.2015 24.7831L18.2073 24.7861L18.2142 24.7885L18.2211 24.7908L18.228 24.7938L18.2337 24.7968L18.2395 24.7991L18.2464 24.8015L18.2521 24.8045L18.2579 24.8068L18.2625 24.8098L18.2682 24.8121L18.2728 24.8145L18.2786 24.8175L18.2832 24.8198L18.2878 24.8222L18.2924 24.8245L18.297 24.8269L18.3005 24.8293L18.3051 24.8316L18.3085 24.8334L18.312 24.8358L18.3154 24.8375L18.3189 24.8399L18.3224 24.8417L18.3246 24.8434L18.3281 24.8452L18.3304 24.847L18.3327 24.8482L18.335 24.85L18.3373 24.8511L18.3384 24.8523L18.3396 24.8535L18.3419 24.8547L18.343 24.8553L18.3442 24.8565V24.8571H18.3454L18.3465 24.8577V24.8583L21.8099 26.6965L22.0009 26.7977C22.6116 27.1165 22.8555 27.0136 23.4168 26.7977L27.1804 24.7571C27.6922 24.4773 27.9557 24.346 27.981 23.7072C28.0224 23.0886 27.9833 22.338 27.9833 21.7045V18.9784C27.9948 18.6289 27.8671 18.3533 27.6509 18.1448C27.4956 17.9868 27.2966 17.8671 27.0746 17.7978L23.2983 16.3413L23.2972 11.9467C23.3087 11.5507 23.2327 11.2718 23.02 11.0477C22.9233 10.9436 22.8003 10.8552 22.6519 10.7765C22.5633 10.7283 22.4839 10.694 22.3919 10.6573L18.8871 9.25819C18.6237 9.15261 18.2786 8.99853 17.9922 9.00001C17.7058 8.99851 17.3607 9.15261 17.0973 9.25819ZM13.2716 17.403L17.2595 19.0855L13.2716 20.7676L9.28482 19.0855L13.2716 17.403ZM22.7232 17.403L26.7099 19.0855L22.7232 20.7676L18.7353 19.0855L22.7232 17.403ZM18.6789 14.8408L21.9525 13.4088V16.3422L18.6789 17.7165V14.8408ZM13.979 22.0369L17.2526 20.4902V23.5955L13.979 25.3137V22.0369ZM23.38 22.0369L26.6536 20.4902V23.5955L23.38 25.3137V22.0369ZM17.9577 10.2048L21.9445 11.8873L17.9577 13.5691L13.9709 11.8873L17.9577 10.2048Z" fill="#936815"/>
</svg>
